<?xml version="1.0" encoding="utf-8"?>
<!-- Generator: Adobe Illustrator 21.0.0, SVG Export Plug-In . SVG Version: 6.00 Build 0)  -->
<svg version="1.1" id="svg-wrapper" xmlns="http://www.w3.org/2000/svg" xmlns:xlink="http://www.w3.org/1999/xlink" x="0px"
	 y="0px" viewBox="0 0 17 17" style="enable-background:new 0 0 17 17;" xml:space="preserve">
<style type="text/css">
	.st0{fill:#CC7C33;}
	.st1{fill:#764719;}
	.st2{fill:#EBE3E0;}
	.st3{fill:#B0ACAB;}
	.st4{fill:#FFFFFF;}
	.st5{fill:#A86727;}
</style>
<g>
	<polygon points="11,8 11,9 11,10 12,10 12,9 12,8 	"/>
	<polygon points="13,8 13,9 13,10 14,10 14,9 14,8 	"/>
</g>
<g>
	<rect x="9" y="5" class="st0" width="1" height="1"/>
	<rect x="11" y="5" class="st0" width="1" height="1"/>
	<rect x="8" y="7" class="st0" width="1" height="1"/>
	<rect x="7" y="9" class="st0" width="1" height="1"/>
	<rect x="6" y="10" class="st0" width="1" height="1"/>
	<rect x="9" y="12" class="st0" width="1" height="1"/>
</g>
<g>
	<polygon class="st1" points="8,1 7,1 7,2 8,2 9,2 9,1 	"/>
	<polygon class="st1" points="5,2 5,3 6,3 7,3 7,2 6,2 	"/>
	<rect x="4" y="3" class="st1" width="1" height="1"/>
	<polygon class="st1" points="3,5 3,6 3,7 3,8 3,9 4,9 4,8 4,7 4,6 4,5 4,4 3,4 	"/>
	<rect x="6" y="7" class="st1" width="1" height="1"/>
	<polygon class="st1" points="5,9 5,10 5,11 6,11 6,10 6,9 6,8 5,8 	"/>
	<rect x="6" y="11" class="st1" width="1" height="1"/>
	<rect x="4" y="13" class="st1" width="1" height="1"/>
	<polygon class="st1" points="5,14 5,15 6,15 7,15 7,14 6,14 	"/>
</g>
<g>
	<polygon class="st2" points="2,15 2,14 1,14 1,13 1,12 1,11 2,11 2,10 1,10 0,10 0,11 0,12 0,13 0,14 0,15 0,16 0,17 1,17 2,17 
		3,17 3,16 2,16 	"/>
	<polygon class="st2" points="11,16 10,16 9,16 8,16 8,17 9,17 10,17 11,17 12,17 12,16 	"/>
</g>
<g>
	<polygon class="st3" points="3,10 3,9 2,9 1,9 0,9 0,10 1,10 2,10 2,11 3,11 	"/>
	<polygon class="st3" points="2,12 2,11 1,11 1,12 1,13 1,14 2,14 2,13 	"/>
	<polygon class="st3" points="3,14 2,14 2,15 2,16 3,16 3,15 	"/>
	<polygon class="st3" points="12,15 11,15 10,15 9,15 8,15 7,15 7,16 6,16 5,16 4,16 3,16 3,17 4,17 5,17 6,17 7,17 8,17 8,16 9,16 
		10,16 11,16 12,16 12,17 13,17 13,16 13,15 	"/>
</g>
<g>
	<polygon class="st4" points="16,0 15,0 14,0 13,0 12,0 11,0 10,0 9,0 8,0 7,0 6,0 5,0 4,0 3,0 2,0 1,0 0,0 0,1 0,2 0,3 0,4 0,5 
		0,6 0,7 0,8 0,9 1,9 2,9 3,9 3,8 3,7 3,6 3,5 3,4 4,4 4,3 5,3 5,2 6,2 7,2 7,1 8,1 9,1 10,1 11,1 11,2 12,2 13,2 13,3 14,3 14,4 
		15,4 15,5 15,6 15,7 15,8 15,9 15,10 15,11 15,12 14,12 14,13 14,14 14,15 15,15 16,15 17,15 17,14 17,13 17,12 17,11 17,10 17,9 
		17,8 17,7 17,6 17,5 17,4 17,3 17,2 17,1 17,0 	"/>
	<rect x="13" y="7" class="st4" width="1" height="1"/>
	<polygon class="st4" points="11,9 11,8 12,8 12,7 11,7 10,7 10,8 10,9 10,10 11,10 	"/>
	<rect x="9" y="11" class="st4" width="1" height="1"/>
	<polygon class="st4" points="13,12 12,12 11,12 10,12 10,13 11,13 12,13 13,13 	"/>
	<polygon class="st4" points="13,16 13,17 14,17 14,16 14,15 13,15 	"/>
</g>
<g>
	<polygon class="st5" points="10,1 9,1 9,2 10,2 11,2 11,1 	"/>
	<polygon class="st5" points="7,2 7,3 6,3 5,3 5,4 4,4 4,5 4,6 4,7 4,8 4,9 3,9 3,10 3,11 2,11 2,12 2,13 2,14 3,14 3,15 3,16 4,16 
		5,16 6,16 7,16 7,15 6,15 5,15 5,14 4,14 4,13 5,13 5,14 6,14 7,14 8,14 8,13 7,13 7,12 6,12 6,11 5,11 5,10 5,9 5,8 6,8 6,7 7,7 
		7,6 8,6 8,5 7,5 7,4 8,4 8,3 9,3 9,2 8,2 	"/>
	<polygon class="st5" points="12,2 11,2 11,3 12,3 13,3 13,2 	"/>
	<rect x="9" y="3" class="st5" width="1" height="1"/>
	<rect x="13" y="3" class="st5" width="1" height="1"/>
	<rect x="8" y="4" class="st5" width="1" height="1"/>
	<rect x="10" y="4" class="st5" width="1" height="1"/>
	<rect x="7" y="7" class="st5" width="1" height="1"/>
	<rect x="7" y="11" class="st5" width="1" height="1"/>
	<polygon class="st5" points="15,11 15,10 15,9 15,8 15,7 15,6 15,5 15,4 14,4 14,5 14,6 14,7 14,8 14,9 14,10 14,11 14,12 15,12 	
		"/>
	<polygon class="st5" points="14,13 14,12 13,12 13,13 13,14 13,15 14,15 14,14 	"/>
	<polygon class="st5" points="9,15 10,15 10,14 9,14 8,14 8,15 	"/>
	<polygon class="st5" points="15,15 14,15 14,16 14,17 15,17 15,16 16,16 16,15 	"/>
</g>
<g>
	<rect x="8" y="3" class="st5" width="1" height="1"/>
	<path class="st5" d="M13,3h-1h-1V2h-1H9v1h1v1h1v1h1v1h-1V5h-1v1H9V5H8v1H7v1h1h1v1H8H7H6v1v1h1V9h1v1H7v1h1v1H7v1h1v1h1h1v1h1h1h1
		v-1v-1h-1h-1h-1H9v-1v-1h1v1h1h1h1h1v-1v-1h-1V9V8V7h1V6V5V4h-1V3z M12,8v1v1h-1h-1V9V8V7h1h1V8z"/>
	<rect x="7" y="4" class="st5" width="1" height="1"/>
	<rect x="9" y="4" class="st5" width="1" height="1"/>
	<rect x="7" y="14" class="st5" width="1" height="1"/>
	<polygon class="st5" points="16,15 16,16 15,16 15,17 16,17 17,17 17,16 17,15 	"/>
</g>
</svg>
